# xmcd
# Copyright (C) 1995-1998 Ti Kan
#
# Track frame offsets:
#       150
#       17097
#       31463
#       51046
#       72418
#       92884
#       104699
#       120792
#
# Disc length: 1876 seconds
#
# Revision: 0
# Processed by: cddbd v1.5.1PL0 Copyright (c) Steve Scherf et al.
# Submitted via: CD-Transfer v1.0
#
DISCID=65075208
DTITLE=New Europe Orchestra - Ambiental Pop
DYEAR=1900
DGENRE=
TTITLE0=Rio
TTITLE1=The Dance
TTITLE2=Memories
TTITLE3=Bad Felling
TTITLE4=The Play
TTITLE5=Jane
TTITLE6=Nightmare
TTITLE7=Grandmaster
EXTD=
EXTT0=
EXTT1=
EXTT2=
EXTT3=
EXTT4=
EXTT5=
EXTT6=
EXTT7=
PLAYORDER=
